<svg width="32" height="28" viewBox="0 0 32 28" fill="none" xmlns="http://www.w3.org/2000/svg">
<path d="M6.32391 28H25.4569C28.9127 28 31.7246 25.5138 31.7246 22.4583V5.54167C31.7246 2.48617 28.9127 0 25.4569 0H6.32391C2.8681 0 0.0562134 2.48617 0.0562134 5.54167V22.4583C0.0562134 25.5138 2.8681 28 6.32391 28ZM2.03549 5.54167C2.03549 3.451 3.95934 1.75 6.32391 1.75H25.4569C27.8214 1.75 29.7453 3.451 29.7453 5.54167V22.4583C29.7453 24.549 27.8214 26.25 25.4569 26.25H6.32391C3.95934 26.25 2.03549 24.549 2.03549 22.4583V5.54167Z" fill="white"/>
<path d="M15.8912 21.1517C20.3512 21.1517 23.9798 17.9434 23.9798 14.0001C23.9798 10.0567 20.3512 6.84839 15.8912 6.84839C11.4312 6.84839 7.80258 10.0567 7.80258 14.0001C7.80258 17.9434 11.4312 21.1517 15.8912 21.1517ZM15.8912 8.59839C19.2599 8.59839 22.0006 11.0216 22.0006 14.0001C22.0006 16.9786 19.2599 19.4017 15.8912 19.4017C12.5225 19.4017 9.78185 16.9786 9.78185 14.0001C9.78185 11.0216 12.5225 8.59839 15.8912 8.59839Z" fill="white"/>
<path d="M24.2805 8.58891C25.5815 8.58891 26.5619 7.72558 26.5619 6.58108C26.5619 5.38758 25.5301 4.57324 24.2818 4.57324C22.9808 4.57324 22.0004 5.43658 22.0004 6.58108C22.0004 7.77224 23.0269 8.58891 24.2805 8.58891ZM24.514 6.38858C24.931 6.71408 23.9796 7.10958 23.9796 6.58224C23.9796 6.26724 24.4639 6.34891 24.514 6.38858Z" fill="white"/>
</svg>
